MoBL_ARMS_module2_4_allmuscles_wrist_states		
version=1		
nRows=238		
nColumns=3		
inDegrees=yes		
		
# SIMM Motion File Header:		
name MoBL_ARMS_module2_4_allmuscles_wrist_states		
datacolumns 3		
datarows 238		
otherdata 1		
range 1.637436739 2.042117165		
endheader		
time	deviation	flexion
1.637436739	-0.137707509	-0.386761275
1.639135269	-0.13768969	-0.392279959
1.640833799	-0.13766928	-0.397793743
1.642532329	-0.137645656	-0.403303716
1.644230859	-0.137618395	-0.408811067
1.645929389	-0.137587382	-0.414316913
1.647627919	-0.137552913	-0.419822201
1.649326449	-0.137515784	-0.425327562
1.651024979	-0.137477207	-0.430833251
1.651970196	-0.137455623	-0.433897257
1.65239209	-0.137446	-0.435264903
1.652532431	-0.137442782	-0.435719854
1.652672772	-0.137439577	-0.436174721
1.653374477	-0.137423899	-0.438447148
1.654773392	-0.137394488	-0.442968214
1.656172307	-0.137367913	-0.447477631
1.659667669	-0.137312665	-0.458700431
1.663163031	-0.137267114	-0.469865124
1.664564804	-0.137249734	-0.474326424
1.665966577	-0.137232169	-0.478778881
1.668272089	-0.137202199	-0.486084311
1.669828844	-0.137181205	-0.491006188
1.671702672	-0.1371557	-0.496920432
1.6735765	-0.137130885	-0.502825106
1.675108503	-0.137111848	-0.507646437
1.676640507	-0.137094458	-0.512462925
1.678593524	-0.137075143	-0.518596913
1.68028909	-0.137061233	-0.523917268
1.681984656	-0.137050017	-0.529233147
1.683680222	-0.137041154	-0.534544837
1.685375788	-0.137034561	-0.53985069
1.687071353	-0.137031447	-0.545143536
1.688766919	-0.137033008	-0.550415246
1.690462485	-0.137039421	-0.555660383
1.692158051	-0.137049903	-0.560876442
1.693853617	-0.13706309	-0.566063111
1.695549183	-0.137077565	-0.571221263
1.697244749	-0.137091927	-0.576352841
1.698940315	-0.137105071	-0.581460314
1.700635881	-0.137116298	-0.586546412
1.702331447	-0.137125359	-0.591613868
1.704027012	-0.137132472	-0.596665089
1.705722578	-0.137138178	-0.601702178
1.707418144	-0.137142966	-0.606726914
1.70911371	-0.137147545	-0.611740553
1.710809276	-0.137152685	-0.616743853
1.712504842	-0.137158921	-0.621737214
1.714200408	-0.137166441	-0.626720819
1.715895974	-0.137175053	-0.631694634
1.71759154	-0.137184247	-0.636658659
1.719287106	-0.137193297	-0.641612919
1.720982672	-0.137201401	-0.646557391
1.722678237	-0.137207852	-0.65149197
1.724373803	-0.137212221	-0.656416323
1.726069369	-0.137214413	-0.661330005
1.727764935	-0.13721461	-0.66623257
1.729460501	-0.137213256	-0.671123423
1.731156067	-0.137210959	-0.676001828
1.732851633	-0.137208325	-0.680867047
1.734547199	-0.137205801	-0.685718497
1.736242765	-0.137203674	-0.690555576
1.737938331	-0.137201958	-0.695377909
1.739633896	-0.137200467	-0.700185227
1.741329462	-0.137198918	-0.704977248
1.743025028	-0.13719698	-0.709753657
1.744720594	-0.137194325	-0.714514102
1.74641616	-0.13719067	-0.719258176
1.748111726	-0.137185847	-0.723985416
1.749807292	-0.137179888	-0.72869523
1.751502858	-0.137173	-0.733386949
1.753198424	-0.137165375	-0.738060056
1.75489399	-0.137157257	-0.742713976
1.756589556	-0.137148884	-0.747348046
1.758285121	-0.137140443	-0.751961553
1.759980687	-0.137132445	-0.756553318
1.760885821	-0.137128418	-0.758995254
1.761790955	-0.137124254	-0.761430889
1.763474426	-0.137115653	-0.765944227
1.767561709	-0.137090143	-0.776807137
1.768746684	-0.137081824	-0.779930033
1.770261078	-0.137070973	-0.783902824
1.773154949	-0.137050606	-0.791435362
1.774689843	-0.137040467	-0.795397951
1.776224737	-0.13703098	-0.799337136
1.778171531	-0.137019857	-0.804298893
1.779867726	-0.137010696	-0.808589876
1.781563921	-0.137001736	-0.812850397
1.783260115	-0.136992607	-0.817080013
1.78495631	-0.136982914	-0.821278467
1.786424343	-0.136973919	-0.824886521
1.787892376	-0.136964386	-0.828470159
1.790199967	-0.136948524	-0.834054285
1.791871805	-0.136936761	-0.838062436
1.793543643	-0.136925147	-0.842038946
1.79521548	-0.13691392	-0.845983782
1.796887318	-0.136903172	-0.849897036
1.798559156	-0.136892842	-0.853778887
1.800230994	-0.136882739	-0.85762957
1.801902832	-0.136872594	-0.861449319
1.80357467	-0.136862137	-0.865238345
1.805246508	-0.136851191	-0.86899677
1.807264353	-0.136837221	-0.873492397
1.808811938	-0.136825937	-0.876910322
1.810359522	-0.136814439	-0.880302139
1.811907107	-0.136803065	-0.883667703
1.814117532	-0.136787265	-0.888429177
1.815718376	-0.13677622	-0.891844127
1.817319219	-0.136765471	-0.895231073
1.818920063	-0.136754912	-0.898590074
1.820961949	-0.13674157	-0.902833948
1.822571996	-0.136731051	-0.906148197
1.824182043	-0.136720399	-0.909434263
1.825792091	-0.136709616	-0.912692131
1.827789175	-0.136696209	-0.916693987
1.829410945	-0.136685545	-0.919911821
1.831032715	-0.13667531	-0.923101052
1.832654485	-0.136665691	-0.926261773
1.834611792	-0.136655111	-0.930038673
1.836241494	-0.136647256	-0.933152175
1.837871196	-0.136640283	-0.936237604
1.839500898	-0.136634159	-0.939295294
1.8411306	-0.13662882	-0.942325595
1.843176002	-0.136623108	-0.946090571
1.844687934	-0.136619485	-0.948846523
1.846199865	-0.136616287	-0.951579652
1.848153725	-0.136612586	-0.955078128
1.850107586	-0.136609069	-0.95853907
1.851547171	-0.13660639	-0.961065131
1.852986757	-0.136603494	-0.963570888
1.855003666	-0.136598888	-0.967047263
1.856818354	-0.136594094	-0.970140651
1.858633042	-0.136588698	-0.973201067
1.860215069	-0.136583595	-0.975841889
1.861797097	-0.136578253	-0.978456999
1.863379124	-0.136572725	-0.981046016
1.865437262	-0.136565043	-0.984374433
1.867061615	-0.13655815	-0.986968914
1.868685968	-0.136549934	-0.989533999
1.870310321	-0.136539731	-0.992068686
1.871762723	-0.136528514	-0.99430823
1.873903966	-0.136507644	-0.997561394
1.875591056	-0.13648734	-1.000081681
1.877278147	-0.136463925	-1.002562136
1.878965238	-0.136438033	-1.005000966
1.880652328	-0.136410483	-1.007396543
1.882339419	-0.13638211	-1.009747477
1.88402651	-0.13635361	-1.012052658
1.8857136	-0.136324903	-1.014311416
1.887400691	-0.136296021	-1.016523108
1.889087781	-0.136267041	-1.018687151
1.890774872	-0.136237745	-1.020803016
1.892461963	-0.136207692	-1.022870179
1.894149053	-0.136176304	-1.024888103
1.895836144	-0.136142981	-1.026856214
1.897523235	-0.136107233	-1.02877388
1.899210325	-0.136068804	-1.030640399
1.900897416	-0.136027747	-1.032455065
1.901824324	-0.136004317	-1.033429687
1.902751232	-0.135980242	-1.034388356
1.905741013	-0.135899031	-1.037370465
1.907477993	-0.135849753	-1.039024395
1.908201536	-0.135828763	-1.039695912
1.908925079	-0.135807579	-1.040356942
1.911556121	-0.135726743	-1.042669921
1.913899492	-0.135644471	-1.044604528
1.915296705	-0.135588104	-1.04569761
1.916693918	-0.135524965	-1.046742829
1.918906897	-0.135410199	-1.048294321
1.920736495	-0.135302684	-1.049474197
1.922566093	-0.135186367	-1.050554604
1.924119609	-0.135083023	-1.051389675
1.925673125	-0.134977345	-1.052145788
1.92758807	-0.134845664	-1.05296495
1.929283465	-0.134728378	-1.053582642
1.930978861	-0.134609918	-1.054096276
1.932674257	-0.13448905	-1.054503251
1.934369653	-0.134364314	-1.054801271
1.936065049	-0.134234421	-1.054988336
1.937760445	-0.134098605	-1.055062739
1.939455841	-0.133956882	-1.055023091
1.941151236	-0.13381005	-1.054868377
1.942846632	-0.133659466	-1.054598004
1.944542028	-0.133506703	-1.054211828
1.946237424	-0.133353244	-1.053710158
1.94793282	-0.133200189	-1.053093712
1.949628216	-0.133047995	-1.052363549
1.951323612	-0.132896451	-1.051520922
1.953019008	-0.132744741	-1.050567195
1.954714403	-0.132591584	-1.049503754
1.956409799	-0.132435462	-1.048331917
1.958105195	-0.132274883	-1.047053383
1.959800591	-0.13210888	-1.045668954
1.961495987	-0.131937053	-1.044179199
1.963191383	-0.131759607	-1.042584657
1.964886779	-0.131577293	-1.040885814
1.966582174	-0.131391207	-1.039083235
1.96827757	-0.131202563	-1.037177548
1.969972966	-0.131012463	-1.035169559
1.971668362	-0.130821753	-1.033060347
1.972946952	-0.130677849	-1.03140357
1.974225542	-0.130533518	-1.02969097
1.977474091	-0.130164452	-1.025094527
1.979367749	-0.129947986	-1.02225735
1.980985235	-0.129762339	-1.019745083
1.982602722	-0.129575975	-1.017153398
1.984220208	-0.129388884	-1.01448476
1.985837694	-0.129201077	-1.011741755
1.986986313	-0.129067423	-1.009750127
1.988134932	-0.128933813	-1.007723104
1.992056378	-0.128477501	-1.000549249
1.995977824	-0.128018577	-0.993013036
1.997426815	-0.127847627	-0.990144296
1.999437702	-0.127608473	-0.986092972
2.001219759	-0.127394039	-0.982437762
2.003001816	-0.127176554	-0.978724452
2.004783873	-0.126955308	-0.974955524
2.006332356	-0.126759449	-0.971637169
2.007880839	-0.126559679	-0.968279856
2.009796815	-0.12630628	-0.964073434
2.011497886	-0.126074695	-0.960291445
2.013198957	-0.12583587	-0.956465582
2.014900028	-0.125588535	-0.952596037
2.016601099	-0.125331201	-0.948682558
2.01830217	-0.125062403	-0.944724625
2.020003241	-0.124780935	-0.940721633
2.021704312	-0.124485917	-0.936672985
2.023405383	-0.124176715	-0.93257808
2.025106454	-0.123852787	-0.928436291
2.026807525	-0.123513551	-0.924246918
2.028508597	-0.123158273	-0.920009087
2.030209668	-0.122785891	-0.915721705
2.031910739	-0.122395032	-0.911383484
2.03361181	-0.121984178	-0.906993117
2.035312881	-0.121551793	-0.902549393
2.037013952	-0.121096445	-0.89805123
2.038715023	-0.120616944	-0.893497748
2.040416094	-0.120112321	-0.888888437
2.042117165	-0.119581752	-0.884223195
